:version 1.10
:name ASF
:units
  mass 1
  length 1
  angle deg
:documentation
  ASF file generated by Kaydara
:root
  axis xyz
  order  tx ty tz rx ry rz
  position 0 0 0
  orientation 0 0 0
:bonedata
  begin
    id 1
    name SpineDummy
    direction 0.999998 -0.00179978 1.38929e-006
    length 3.60008
    axis 0 0 0 xyz
  end
  begin
    id 2
    name Spine
    direction 0.964365 0.262802 0.0305839
    length 8.13928
    axis 1.33928 -1.75354 15.2838 xyz
    dof rx ry rz
  end
  begin
    id 3
    name Spine1
    direction 0.811168 0.572065 0.12144
    length 7.14954
    axis 2.2224 -6.9761 35.2157 xyz
    dof rx ry rz
  end
  begin
    id 4
    name Neck
    direction 0 0 0
    length 0
    axis 2.2224 -6.9761 35.2157 xyz
    dof rx ry rz
  end
  begin
    id 5
    name HeadDummy
    direction 0.810939 0.572387 0.121455
    length 3.55534
    axis 2.2224 -6.9761 35.2157 xyz
  end
  begin
    id 6
    name Head
    direction 0.998226 -0.000232542 0.0595419
    length 7.35666
    axis -3.03688 -3.41352 -0.0133467 xyz
    dof rx ry rz
  end
  begin
    id 7
    name R_ClavicleDummy
    direction 0.531669 -0.194489 -0.824319
    length 2.49392
    axis 2.2224 -6.9761 35.2157 xyz
  end
  begin
    id 8
    name R_Clavicle
    direction -0.155119 0.0480802 -0.986725
    length 4.485
    axis -54.2764 80.6538 162.779 xyz
    dof rx ry rz
  end
  begin
    id 9
    name R_UpperArm
    direction -0.955567 0.200068 -0.216484
    length 10.1122
    axis -72.9943 12.5026 168.175 xyz
    dof rx ry rz
  end
  begin
    id 10
    name R_Forearm
    direction -0.61433 0.385743 0.688332
    length 9.39148
    axis -117.015 -43.4982 147.875 xyz
    dof rx ry rz
  end
  begin
    id 11
    name R_Hand
    direction -0.699429 0.0170333 0.714499
    length 3.66324
    axis -45.0303 -36.7097 175.478 xyz
    dof rx ry rz
  end
  begin
    id 12
    name L_ClavicleDummy
    direction 0.40287 -0.36502 0.839319
    length 2.49392
    axis 2.2224 -6.9761 35.2157 xyz
  end
  begin
    id 13
    name L_Clavicle
    direction -0.231271 -0.0726419 0.970174
    length 4.485
    axis 18.4357 -75.9711 -162.563 xyz
    dof rx ry rz
  end
  begin
    id 14
    name L_UpperArm
    direction -0.917494 0.144359 0.370629
    length 10.1122
    axis 56.0417 -21.7544 171.058 xyz
    dof rx ry rz
  end
  begin
    id 15
    name L_Forearm
    direction -0.496786 0.615074 -0.612281
    length 9.39148
    axis 89.8094 37.7546 128.927 xyz
    dof rx ry rz
  end
  begin
    id 16
    name L_Hand
    direction -0.409932 0.64962 -0.640274
    length 3.66324
    axis -0.424369 32.133 128.52 xyz
    dof rx ry rz
  end
  begin
    id 17
    name L_ThighDummy
    direction -1.84081e-006 1.87549e-006 1
    length 3.13049
    axis 0 0 0 xyz
  end
  begin
    id 18
    name L_Thigh
    direction -0.947739 0.307978 0.083308
    length 17.9961
    axis 173.219 -4.77873 161.998 xyz
    dof rx ry rz
  end
  begin
    id 19
    name L_Calf
    direction -0.728814 -0.684427 0.0197583
    length 13.3367
    axis 167.331 -1.13214 -136.799 xyz
    dof rx ry rz
  end
  begin
    id 20
    name L_Foot
    direction -0.9028 0.418719 0.0981191
    length 5.8674
    axis 163.436 11.5135 -155.37 xyz
    dof rx ry rz
  end
  begin
    id 21
    name L_Toe0
    direction -0.35341 0.886259 0.299411
    length 4.75286
    axis 169.316 -17.4222 111.74 xyz
    dof rx ry rz
  end
  begin
    id 22
    name R_ThighDummy
    direction 9.32778e-007 -8.82053e-007 -1
    length 3.13049
    axis 0 0 0 xyz
  end
  begin
    id 23
    name R_Thigh
    direction -0.925064 0.37528 -0.0585023
    length 17.9961
    axis -178.698 3.35385 157.919 xyz
    dof rx ry rz
  end
  begin
    id 24
    name R_Calf
    direction -0.68969 -0.718776 -0.0876886
    length 13.3367
    axis -160.504 5.03065 -133.817 xyz
    dof rx ry rz
  end
  begin
    id 25
    name R_Foot
    direction -0.857405 0.418858 -0.299022
    length 5.8674
    axis -161.328 4.38911 -154.413 xyz
    dof rx ry rz
  end
  begin
    id 26
    name R_Toe0
    direction -0.100745 0.952789 -0.286433
    length 4.75286
    axis 171.683 16.6445 96.0359 xyz
    dof rx ry rz
  end
:hierarchy
  begin
    root SpineDummy L_ThighDummy R_ThighDummy
    SpineDummy Spine
    Spine Spine1
    Spine1 Neck
    Neck HeadDummy R_ClavicleDummy L_ClavicleDummy
    HeadDummy Head
    R_ClavicleDummy R_Clavicle
    R_Clavicle R_UpperArm
    R_UpperArm R_Forearm
    R_Forearm R_Hand
    L_ClavicleDummy L_Clavicle
    L_Clavicle L_UpperArm
    L_UpperArm L_Forearm
    L_Forearm L_Hand
    L_ThighDummy L_Thigh
    L_Thigh L_Calf
    L_Calf L_Foot
    L_Foot L_Toe0
    R_ThighDummy R_Thigh
    R_Thigh R_Calf
    R_Calf R_Foot
    R_Foot R_Toe0
  end

:SAMPLES-PER-SECOND 30
:FULLY-SPECIFIED
:DEGREES
1
root  -2.25225 32.918 -62.9321 99.7291 0.690848 89.4577
Spine  -2.7039 1.07847 -32.4319
Spine1  -1.4563 4.45834 7.19752
Neck  3.97569e-016 0 -2.38542e-015
Head  5.84222 -9.645 25.8559
R_Clavicle  0.448521 -14.3696 2.51135
R_UpperArm  -14.6425 -3.59431 57.6668
R_Forearm  -24.9069 29.2046 -27.7095
R_Hand  -0.973333 -2.13936 -13.8118
L_Clavicle  -0.416892 13.6143 1.57612
L_UpperArm  30.9311 -0.0903162 37.8446
L_Forearm  41.0883 -11.7822 -13.9551
L_Hand  -0.68691 -1.32351 -18.2404
L_Thigh  -12.8359 2.31331 -6.24276
L_Calf  -4.08444 -6.33469 26.1123
L_Foot  5.0264 12.0823 6.66608
L_Toe0  0.505156 0.0344461 -6.1361
R_Thigh  6.05445 -1.59059 -15.2379
R_Calf  14.6997 16.3693 33.9076
R_Foot  0.965403 3.76223 1.59856
R_Toe0  -1.78853 -0.272788 -17.3235
2
root  -2.15653 32.9113 -62.8829 99.6377 0.7487 89.5819
Spine  -2.6783 1.12856 -32.2724
Spine1  -1.43212 4.25357 7.27633
Neck  3.97569e-016 0 -2.38542e-015
Head  6.29961 -9.73846 25.9654
R_Clavicle  0.448549 -14.4034 2.51328
R_UpperArm  -13.8194 -3.59535 57.6857
R_Forearm  -22.4975 29.5525 -28.1401
R_Hand  -0.951607 -3.74591 -9.71851
L_Clavicle  -0.422706 13.7862 1.74109
L_UpperArm  30.3025 0.131213 38.3046
L_Forearm  41.3032 -11.7506 -13.9158
L_Hand  -0.717779 -1.12998 -18.2192
L_Thigh  -12.7258 2.06502 -6.50176
L_Calf  -4.30581 -6.39718 26.1232
L_Foot  5.08988 12.0947 6.85467
L_Toe0  0.505156 0.0344461 -6.1361
R_Thigh  6.37295 -1.94251 -15.402
R_Calf  14.1899 16.293 33.8564
R_Foot  0.990092 3.8611 1.67016
R_Toe0  -1.78853 -0.272788 -17.3235
3
root  -1.98001 32.8995 -62.7871 99.4956 0.842562 89.8335
Spine  -2.53137 0.966571 -31.9887
Spine1  -1.30919 4.12891 7.44038
Neck  3.97569e-016 0 -2.38542e-015
Head  7.00396 -9.89516 26.3845
R_Clavicle  0.455034 -14.6581 2.61797
R_UpperArm  -12.1618 -3.59788 57.6092
R_Forearm  -18.0885 29.963 -28.6543
R_Hand  -1.11901 -5.90638 -2.50804
L_Clavicle  -0.431028 14.0897 1.99204
L_UpperArm  29.0951 0.601819 39.0417
L_Forearm  41.4616 -11.5869 -13.7128
L_Hand  -0.799212 -0.589977 -18.0687
L_Thigh  -12.4047 1.57447 -6.98698
L_Calf  -4.80366 -6.57914 26.177
L_Foot  5.20397 12.1266 7.18362
L_Toe0  0.505156 0.0344461 -6.1361
R_Thigh  7.02856 -2.60847 -15.7136
R_Calf  13.2373 16.1115 33.7801
R_Foot  1.04149 4.06124 1.80196
R_Toe0  -1.78853 -0.272788 -17.3235
4
root  -1.79482 32.8818 -62.6846 99.5878 0.835737 90.0849
Spine  -2.35733 0.486236 -31.7898
Spine1  -1.18909 4.31933 7.62044
Neck  3.97569e-016 0 -2.38542e-015
Head  7.52818 -9.96145 27.0962
R_Clavicle  0.465011 -15.1709 2.80522
R_UpperArm  -10.1936 -3.80164 57.4996
R_Forearm  -14.3261 30.0502 -28.7644
R_Hand  -1.4 -7.41494 3.38954
L_Clavicle  -0.438479 14.472 2.22646
L_UpperArm  28.0409 1.10129 39.6416
L_Forearm  41.3893 -11.3662 -13.4398
L_Hand  -0.825754 -0.377706 -17.9048
L_Thigh  -12.0778 1.01777 -7.33215
L_Calf  -5.11243 -6.69574 26.1819
L_Foot  5.34411 12.2055 7.54799
L_Toe0  0.505156 0.0344461 -6.1361
R_Thigh  7.88612 -3.32663 -15.9686
R_Calf  12.3095 15.9308 33.6642
R_Foot  1.10455 4.30756 1.97652
R_Toe0  -1.78853 -0.272788 -17.3235
5
root  -1.62697 32.8568 -62.5869 99.9273 0.726567 90.2737
Spine  -2.21418 -0.190517 -31.7454
Spine1  -1.10196 4.81222 7.88721
Neck  3.97569e-016 0 -2.38542e-015
Head  7.78083 -9.88166 27.785
R_Clavicle  0.472962 -15.7417 2.99498
R_UpperArm  -7.75269 -4.39493 57.4464
R_Forearm  -12.0052 29.906 -28.5825
R_Hand  -1.82872 -9.04452 7.20364
L_Clavicle  -0.444561 14.9254 2.43851
L_UpperArm  27.3817 1.51493 40.0059
L_Forearm  41.2982 -11.2174 -13.2561
L_Hand  -0.748789 -0.881922 -17.992
L_Thigh  -11.9844 0.530868 -7.46588
L_Calf  -4.98653 -6.6578 26.0719
L_Foot  5.51181 12.3352 7.94708
L_Toe0  0.505156 0.0344461 -6.1361
R_Thigh  8.91075 -3.99234 -16.1263
R_Calf  11.475 15.7875 33.49
R_Foot  1.16348 4.54777 2.19306
R_Toe0  -1.78853 -0.272788 -17.3235
6
root  -1.47035 32.8273 -62.479 100.177 0.661747 90.4274
Spine  -2.00938 -0.897087 -31.7291
Spine1  -0.929528 5.46279 8.29512
Neck  3.97569e-016 0 -2.38542e-015
Head  7.95402 -9.80577 28.1709
R_Clavicle  0.479159 -16.2786 3.18239
R_UpperArm  -4.35933 -5.17266 57.3475
R_Forearm  -9.45338 29.801 -28.4505
R_Hand  -2.45374 -10.901 11.289
L_Clavicle  -0.448725 15.3684 2.62704
L_UpperArm  26.704 1.93402 40.3298
L_Forearm  41.3192 -11.2064 -13.2425
L_Hand  -0.647493 -1.54076 -18.1381
L_Thigh  -12.1366 0.185044 -7.64493
L_Calf  -4.71195 -6.61999 25.8977
L_Foot  5.7007 12.4695 8.40367
L_Toe0  0.505156 0.0344461 -6.1361
R_Thigh  9.9833 -4.58295 -16.3144
R_Calf  10.5616 15.563 33.3063
R_Foot  1.22189 4.78682 2.42648
R_Toe0  -1.78853 -0.272788 -17.3235
7
root  -1.31875 32.7994 -62.3517 100.165 0.707156 90.5755
Spine  -1.69241 -1.58003 -31.6328
Spine1  -0.63253 6.16291 8.70743
Neck  3.97569e-016 0 -2.38542e-015
Head  8.2369 -9.90513 28.3139
R_Clavicle  0.484647 -16.8963 3.41077
R_UpperArm  -0.186098 -5.70548 56.9544
R_Forearm  -5.50941 29.6568 -28.2701
R_Hand  -3.10626 -12.2214 16.219
L_Clavicle  -0.451023 15.7233 2.7928
L_UpperArm  25.7493 2.45695 40.778
L_Forearm  41.43 -11.2715 -13.3228
L_Hand  -0.61572 -1.70408 -17.984
L_Thigh  -12.3104 -0.0528252 -8.01658
L_Calf  -4.65692 -6.71747 25.7567
L_Foot  5.88251 12.5547 8.88215
L_Toe0  0.505156 0.0344461 -6.1361
R_Thigh  10.8198 -5.06002 -16.6191
R_Calf  9.66993 15.2267 33.209
R_Foot  1.29636 5.06714 2.63294
R_Toe0  -1.78853 -0.272788 -17.3235
8
root  -1.17054 32.7791 -62.2093 100.093 0.800677 90.7134
Spine  -1.35051 -2.2898 -31.4968
Spine1  -0.31525 6.92757 9.00638
Neck  3.97569e-016 0 -2.38542e-015
Head  8.59769 -10.1387 28.429
R_Clavicle  0.486834 -17.5827 3.64541
R_UpperArm  4.00107 -5.87106 56.1165
R_Forearm  -0.812533 29.1491 -27.6412
R_Hand  -3.52417 -12.7959 19.8785
L_Clavicle  -0.452143 16.0246 2.92703
L_UpperArm  24.7698 3.05971 41.3018
L_Forearm  41.7559 -11.2634 -13.3128
L_Hand  -0.627805 -1.57388 -17.741
L_Thigh  -12.1762 -0.300242 -8.50011
L_Calf  -4.94233 -6.92721 25.7243
L_Foot  6.02595 12.5721 9.30631
L_Toe0  0.505156 0.0344461 -6.1361
R_Thigh  11.2281 -5.43499 -17.0429
R_Calf  9.10631 14.9883 33.2663
R_Foot  1.38356 5.37126 2.77864
R_Toe0  -1.78853 -0.272788 -17.3235
9
root  -1.0197 32.7695 -62.0513 100.065 0.925172 90.8341
Spine  -1.05141 -2.9752 -31.3755
Spine1  -0.0236692 7.69537 9.28416
Neck  3.97569e-016 0 -2.38542e-015
Head  8.89202 -10.3293 28.5931
R_Clavicle  0.484663 -18.1034 3.7752
R_UpperArm  7.67963 -5.92895 54.9064
R_Forearm  4.18982 28.2286 -26.5254
R_Hand  -3.47526 -12.4601 21.2756
L_Clavicle  -0.452893 16.3523 2.96257
L_UpperArm  23.7524 3.69165 41.9594
L_Forearm  42.3224 -11.219 -13.258
L_Hand  -0.613737 -1.63897 -17.6492
L_Thigh  -11.6117 -0.593301 -9.07558
L_Calf  -5.55139 -7.2435 25.8373
L_Foot  6.13005 12.5448 9.65288
L_Toe0  0.505156 0.0344461 -6.1361
R_Thigh  11.3015 -5.77564 -17.6025
R_Calf  8.89914 14.9938 33.4999
R_Foot  1.46535 5.63861 2.83739
R_Toe0  -1.78853 -0.272788 -17.3235
10
root  -0.871484 32.765 -61.8819 99.8235 1.09888 90.9294
Spine  -0.760249 -3.38188 -31.1761
Spine1  0.276998 8.09164 9.51934
Neck  3.97569e-016 0 -2.38542e-015
Head  9.06567 -10.3429 28.7971
R_Clavicle  0.480978 -18.3512 3.77515
R_UpperArm  10.6767 -6.10694 53.4117
R_Forearm  9.99811 26.9207 -24.9902
R_Hand  -2.60012 -10.2877 20.8709
L_Clavicle  -0.454353 16.7254 2.87482
L_UpperArm  22.0936 4.23676 43.1168
L_Forearm  42.6513 -11.6097 -13.741
L_Hand  -0.610692 -1.50744 -16.9955
L_Thigh  -10.9819 -0.806491 -9.76535
L_Calf  -6.34747 -7.70619 26.031
L_Foot  6.22576 12.509 9.9822
L_Toe0  0.505156 0.0344461 -6.1361
R_Thigh  11.205 -6.08111 -18.2055
R_Calf  8.76015 15.0666 33.8196
R_Foot  1.53876 5.86631 2.83059
R_Toe0  -1.78853 -0.272788 -17.3235
11
root  -0.748243 32.7546 -61.7325 99.1533 1.21266 90.9497
Spine  -0.449154 -3.23617 -30.702
Spine1  0.551348 7.66381 9.34173
Neck  3.97569e-016 0 -2.38542e-015
Head  9.10839 -10.0422 29.0456
R_Clavicle  0.479694 -18.4449 3.77801
R_UpperArm  12.8283 -6.46914 51.4815
R_Forearm  16.1754 24.7247 -22.5298
R_Hand  -1.15701 -6.58445 17.8192
L_Clavicle  -0.45591 17.0953 2.83996
L_UpperArm  19.5625 4.38353 44.9205
L_Forearm  42.3296 -12.9937 -15.4716
L_Hand  -0.709347 -0.217224 -14.8765
L_Thigh  -10.8076 -0.817172 -10.3524
L_Calf  -7.06332 -8.22843 26.1335
L_Foot  6.33651 12.475 10.3559
L_Toe0  0.505156 0.0344461 -6.1361
R_Thigh  10.99 -6.25175 -18.5369
R_Calf  8.44555 14.943 34.0299
R_Foot  1.60835 6.08287 2.82808
R_Toe0  -1.78853 -0.272788 -17.3235
12
root  -0.656159 32.7415 -61.6366 98.2635 1.16749 90.9063
Spine  -0.13287 -2.60678 -29.7283
Spine1  0.756253 6.42173 8.4986
Neck  3.97569e-016 0 -2.38542e-015
Head  8.86619 -9.26046 29.205
R_Clavicle  0.483832 -18.4123 3.88172
R_UpperArm  14.3001 -7.14912 48.9805
R_Forearm  21.1448 20.9933 -18.6274
R_Hand  -0.290522 -3.45372 11.1583
L_Clavicle  -0.4544 17.3063 3.02194
L_UpperArm  16.895 3.88464 46.806
L_Forearm  41.71 -15.2859 -18.4153
L_Hand  -0.793928 2.20868 -11.4484
L_Thigh  -10.9837 -0.762736 -10.651
L_Calf  -7.67437 -8.65114 26.1541
L_Foot  6.42591 12.4217 10.6838
L_Toe0  0.505156 0.0344461 -6.1361
R_Thigh  10.7043 -6.29618 -18.4577
R_Calf  8.00089 14.6391 34.0897
R_Foot  1.66697 6.26444 2.8213
R_Toe0  -1.78853 -0.272788 -17.3235
13
root  -0.578864 32.7379 -61.594 97.5375 1.04707 90.8908
Spine  0.187858 -1.89812 -28.1904
Spine1  0.960082 4.88784 7.32825
Neck  3.97569e-016 0 -2.38542e-015
Head  8.16568 -8.08185 28.9853
R_Clavicle  0.491276 -18.1466 3.9664
R_UpperArm  15.8527 -8.28503 46.1879
R_Forearm  24.1777 15.8978 -13.7229
R_Hand  -0.247909 -1.9893 2.91642
L_Clavicle  -0.452573 17.13 3.1671
L_UpperArm  14.9088 2.95789 48.0448
L_Forearm  41.0549 -17.7012 -21.6452
L_Hand  -0.662816 4.62593 -7.26811
L_Thigh  -10.896 -0.890521 -10.7662
L_Calf  -8.45327 -8.9157 26.259
L_Foot  6.43648 12.3147 10.8258
L_Toe0  0.505156 0.0344461 -6.1361
R_Thigh  10.5459 -6.37291 -18.2256
R_Calf  7.5525 14.3657 34.1397
R_Foot  1.70281 6.36317 2.74672
R_Toe0  -1.78853 -0.272788 -17.3235
14
root  -0.535668 32.7257 -61.6025 96.8072 0.674269 90.7827
Spine  0.602939 -1.18986 -26.7003
Spine1  1.29064 3.35976 6.46688
Neck  3.97569e-016 0 -2.38542e-015
Head  7.20727 -6.97074 28.2354
R_Clavicle  0.495299 -17.7312 3.8967
R_UpperArm  17.9688 -9.62734 43.4593
R_Forearm  25.4791 10.2666 -8.68811
R_Hand  -0.337758 -0.798759 -3.47183
L_Clavicle  -0.454306 16.5557 2.81944
L_UpperArm  13.5828 2.03501 48.4837
L_Forearm  39.2765 -19.4287 -24.0542
L_Hand  -0.247066 6.5739 -2.13343
L_Thigh  -11.0325 -0.943085 -10.4065
L_Calf  -9.01716 -9.03317 26.1355
L_Foot  6.44101 12.1833 10.9753
L_Toe0  0.505156 0.0344461 -6.1361
R_Thigh  10.7418 -6.34381 -17.5692
R_Calf  6.77086 13.8805 34.0298
R_Foot  1.71982 6.41262 2.72295
R_Toe0  -1.78853 -0.272788 -17.3235
